<svg xmlns="http://www.w3.org/2000/svg" width="2000" height="1500" viewBox="0 0 2000 1500">

  <rect width="2000" height="1500" x="0" y="0" id="background" stroke="transparent" fill="#ffffff"/>
  

  <g transform="translate(250,187.5) scale(1.8727,1.3809)">

    <rect width="801" height="816" fill="transparent"/>
 
    <g transform="translate(396.19,436.2)">
      <filter id="a" width="142.28%" height="142.46%" x="-21.14%" y="-21.23%">
        <feGaussianBlur in="SourceAlpha"/>
        <feOffset dx="4" dy="4" result="oBlur"/>
        <feFlood flood-color="#000" flood-opacity="1"/>
        <feComposite in2="oBlur" operator="in"/>
        <feMerge>
          <feMergeNode/>
          <feMergeNode in="SourceGraphic"/>
        </feMerge>
      </filter>
      <g filter="url(#a)">
        <path d="M-147.85 60.05v-223.3h23.8v221.2q0 44.1-12.25 68.6-12.25 24.5-37.45 35.7l-1.05-1.75q14-9.8 20.47-33.08 6.48-23.27 6.48-67.37"/>
        <rect width="50.75" height="325.5" x="-25.38" y="-162.75" fill="none" rx="0" ry="0" transform="translate(-148.93)"/>
        <path d="M-37.6 81.75v-245h77q40.6 0 70.7 15.4t46.9 42.87q16.8 27.48 16.8 64.23T157 23.47q-16.8 27.48-46.9 42.88-30.1 15.4-70.7 15.4Zm77-236.6h-53.2v228.2h53.2q50.75 0 79.27-30.1 28.53-30.1 28.53-84t-28.53-84q-28.52-30.1-79.27-30.1"/>
        <rect width="211.4" height="245" x="-105.7" y="-122.5" fill="none" rx="0" ry="0" transform="translate(68.6 -40.25)"/>
      </g>
    </g>
    
   
    <g opacity=".29">
      <path d="m644.307 146.042-44.18 38.836 51.38-4.277 8.77 17.204 53.053 6.938 42.205 7.049a389.773 389.773 0 0 0-20.589-33.198l-12.966-.756-27.821-31.453 6.555 22.46-18.184 14.974v-10.697z" opacity=".29"/>
      <path d="m340.474 796.965 7.63-.462 46.57-56.175 24.133 61.926c171.076-5.161 314.88-117.831 366.103-272.962l-30.673 50.513-52.958 12.847s-35.348-97.927-33.739-102.738c1.633-4.81-6.396-110.79-11.214-114-4.795-3.21-94.726-11.214-94.726-11.214l-36.885-99.536 62.54-77.068-17.61-38.502 30.49-24.101 45.78-39.37a400.016 400.016 0 0 0-32.344-21.92l12.887 28.109-24.205 13.596-21.41-8.754 8.459-19.091 3.313-22.636 4.445-1.267c-14.106-7.678-28.809-14.225-43.902-20.19l-15.627-1.554 4.484-2.548a412.688 412.688 0 0 0-34.36-10.673L463.68 32.416 446 56.486l-20.82-4.819 3.489-44.754c-7.336-.414-14.576-1.131-21.967-1.131-8.037 0-15.866.733-23.727 1.195l2.055 1.33L368.956 32.4h-27.288l-28.896-11.246-73.85 36.957 28.889 22.445 40.142-28.913h51.39l19.25 46.555-64.212 41.751-60.963 40.143-33.746 35.292-1.57 32.138-54.606-24.102-38.534 19.251 12.855 43.352 35.324-14.464 43.32 67.43 46.531-20.86 99.568 52.959 78.652 64.212-32.074 80.285s-69.03 101.137-67.462 94.717c1.57-6.427-24.07 43.32-24.07 43.32l16.042 51.35-48.147-30.457-30.506-163.765-52.997-81.846 11.286-77.067-73.858-44.97-52.966-20.86-33.508-64.857C24.47 276.028 8.126 338.225 8.126 404.317c-.008 197.51 143.805 361.052 332.348 392.648m-93.515-504.514-49.78-27.287 73.858 11.246z" opacity=".29"/>
    </g>
  </g>
</svg>

